<svg xmlns="http://www.w3.org/2000/svg" xmlns:xlink="http://www.w3.org/1999/xlink" version="1.1" id="Layer_1" x="0px" y="0px" width="77.3px" height="29.181px" viewBox="0 0 77.3 29.181" style="enable-background:new 0 0 77.3 29.181;" xml:space="preserve">
<g>
	<path d="M73,23.981c0,0.4-0.1,0.7-0.2,1.1c-0.5-0.4-1-0.8-1.5-1.2c0,0,0-0.1,0.1-0.2c0.4-1.3,0-2.3-1.2-3.3c0.5,0.6,0.8,1.3,0.9,2   c0.1,0.4-0.1,0.8-0.3,1.2c-0.5-0.4-1-0.8-1.5-1.2v-0.2c0.5-1.6,0-3-1.5-4.3c0.7,0.9,1,1.7,1.1,2.5c0.1,0.5-0.1,1-0.2,1.6   c-0.7-0.5-1.2-0.9-1.899-1.2c0.1-0.2,0.1-0.3,0.2-0.4c0.5-1.9-0.1-3.6-2-5.1c0.9,1,1.4,2,1.5,3c0,0.6-0.2,1.3-0.4,2   c-0.6-0.4-1.3-0.9-1.9-1.2c0.101-0.2,0.101-0.3,0.101-0.4c0.5-2.4-0.5-4.4-3-6c1.2,1.1,1.899,2.3,2.1,3.6c0.1,0.7,0.1,1.5-0.1,2.2   c-0.8-0.4-1.4-0.7-2.2-1.2l0,0c0.6-3-0.7-5.4-3.9-7.3c1.601,1.3,2.5,2.8,2.8,4.3c0.1,0.7,0.1,1.6,0,2.5c-0.8-0.5-1.6-0.9-2.4-1.3   c0.4-3.4-1.3-6.3-5.1-8.6c2,1.8,3.1,3.5,3.5,5.4c0.2,0.8,0.3,1.6,0.1,2.5c-0.9-0.4-1.8-0.8-2.7-1.1c0-0.2,0-0.4,0-0.5   c0-4.4-2.5-7.5-7.6-9.4c2.6,1.6,4.3,3.4,5.2,5.5c0.4,1.1,0.6,2.3,0.6,3.7c-1.3-0.4-2.6-0.9-3.8-1.3c-0.4-4.6-3.3-8-8.8-10.2   c3,1.9,5,4.1,5.9,6.5c0.4,0.9,0.6,2,0.7,3.1c-1.1-0.3-2.2-0.7-3.4-0.9c-0.6-3.8-3.2-6.6-7.8-8.4c-6-2.5-12.2-2.4-18.5,0.5   c-6.2,2.8-11.4,7.8-15.5,14.9c-0.1,0.2-0.3,0.4-0.4,0.7c0.1-0.1,0.3-0.1,0.4-0.1c2.4-0.8,4.9-0.7,7.5,0.1c1.3,0.4,4,1.6,8,3.5   c7.2,3.5,13.5,4.3,18.7,2.2c4.9-3.2,7.5-7,7.7-11.5c1.1,0.3,2.2,0.6,3.2,0.9c0,1-0.3,2.2-0.7,3.4c-1.5,4.8-4.2,8.3-7.9,10.3   c1-0.5,1.7-0.9,2.4-1.1c5.2-3.2,8.1-7.3,8.5-12c1.2,0.4,2.3,0.7,3.6,1.2c-0.1,0.5-0.3,1-0.4,1.6c-1.3,4.2-3.6,7.2-6.9,9   c0.9-0.5,1.7-0.9,2.3-1c3.9-2.6,6.1-5.6,6.8-9c0.8,0.4,1.7,0.6,2.601,1c-0.3,0.6-0.5,1.2-0.8,1.9c-1.8,3.4-4.1,5.5-7.1,6.5   c0.9-0.3,1.6-0.4,2-0.6c4-1.6,6.5-4,7.4-7.2c0.7,0.3,1.6,0.7,2.3,1c-0.1,0.4-0.3,0.8-0.5,1.1c-1.3,2.8-3.2,4.5-5.7,5.3   c0.7-0.2,1.2-0.4,1.6-0.5c3.1-1.2,5-3,5.9-5.3c0.4,0.2,0.9,0.4,1.4,0.7c0.2,0.1,0.399,0.2,0.6,0.3c-0.1,0.2-0.2,0.3-0.3,0.5   c-1.1,2.1-2.6,3.6-4.6,4.2c0.5-0.1,1-0.3,1.2-0.4c2.3-0.9,3.9-2.2,4.7-3.8c0.6,0.3,1.2,0.7,1.8,1c-0.1,0.1-0.2,0.2-0.2,0.3   c-1.1,1.5-2.4,2.5-4,2.8c0.4,0,0.6,0,0.9,0c1.9-0.5,3.3-1.5,4.1-2.7c0.6,0.4,1.2,0.7,1.8,1.1c0,0.1-0.101,0.2-0.2,0.3   c-0.9,1.3-2.1,2.1-3.4,2.4c0.4-0.1,0.7-0.1,0.9-0.1c1.6-0.5,2.7-1.2,3.4-2.2c0.5,0.4,1.1,0.7,1.7,1c-0.2,0.2-0.2,0.2-0.3,0.4   c-0.7,1-1.6,1.7-2.7,1.8c0.3,0,0.601,0,0.7,0c1.3-0.4,2.2-1,2.7-1.8c0.5,0.3,1,0.6,1.5,1c-0.1,0-0.1,0.2-0.2,0.3   c-0.6,0.8-1.4,1.3-2.2,1.5c0.2-0.1,0.5-0.1,0.601-0.1c1-0.3,1.7-0.8,2.2-1.4c0.3,0.2,0.7,0.5,1,0.7c0,0.1-0.1,0.2-0.2,0.3   c-0.5,0.7-1,1.1-1.8,1.2c0.3,0,0.4,0,0.5,0c0.8-0.3,1.5-0.7,1.8-1.2c1.1,0.8,2.1,1.7,3,2.5v-0.1c-0.9-0.8-1.9-1.8-2.8-2.6   c0-0.1,0-0.2,0-0.2c0.3-0.9,0-1.6-0.8-2.3c0.3,0.5,0.601,0.9,0.601,1.4c0,0.3,0,0.5-0.101,0.8c-0.399-0.3-0.7-0.5-1.1-0.8   c0.1-0.1,0.1-0.2,0.1-0.3c0.3-1,0-1.9-1-2.7C72.7,22.881,72.9,23.381,73,23.981z M18.6,6.981c2-1.2,3.9-2.1,5.8-2.6   c2.1-0.4,4.2-0.3,6.2,0.5c2.1,0.8,3.5,2.1,4.4,3.9c-1.6-0.9-3.2-1.2-4.7-1c-1.2,0.3-2.101,0.8-2.7,1.5c-0.5,0.7-0.5,1.5-0.3,2.3   c0.3,1,0.8,1.7,1.6,2.3c1.6,1.1,3.7,1,6.4-0.4c-3.4,4.3-7.4,5.2-12,2.8c-2.5-1.5-4.3-2.5-5.4-3.1c-2-1.1-3.7-1.3-5.1-0.8   C14.4,10.281,16.3,8.481,18.6,6.981z"/>
</g>
<line style="fill:none;stroke:#4F4B6A;stroke-width:0;stroke-linecap:round;stroke-linejoin:round;" x1="0" y1="17.881" x2="0.4" y2="17.781"/>
<path style="fill:none;stroke:#4F4B6A;stroke-width:0;stroke-linecap:round;stroke-linejoin:round;" d="M0.4,17.781  c2.4-0.8,4.9-0.7,7.5,0.1l8,3.5c7.2,3.5,13.5,4.3,18.7,2.2"/>
<path style="fill:none;stroke:#4F4B6A;stroke-width:0;stroke-linecap:round;stroke-linejoin:round;" d="M34.4,1.781  c-6-2.5-12.2-2.4-18.5,0.5c-6.2,2.8-11.4,7.8-15.5,14.9"/>
<line style="fill:none;stroke:#4F4B6A;stroke-width:0;stroke-linecap:round;stroke-linejoin:round;" x1="0.4" y1="17.181" x2="0" y2="17.881"/>
<line style="fill:none;stroke:#4F4B6A;stroke-width:0;stroke-linecap:round;stroke-linejoin:round;" x1="58" y1="24.281" x2="59.2" y2="23.881"/>
<path style="fill:none;stroke:#4F4B6A;stroke-width:0;stroke-linecap:round;stroke-linejoin:round;" d="M58,24.281  c2-0.6,3.5-2.1,4.6-4.2"/>
<line style="fill:none;stroke:#4F4B6A;stroke-width:0;stroke-linecap:round;stroke-linejoin:round;" x1="61.5" y1="24.181" x2="62.4" y2="24.181"/>
<path style="fill:none;stroke:#4F4B6A;stroke-width:0;stroke-linecap:round;stroke-linejoin:round;" d="M61.5,24.181  c1.6-0.3,2.9-1.3,4-2.8"/>
</svg>